<svg width="28" height="29" viewBox="0 0 28 29" fill="none" xmlns="http://www.w3.org/2000/svg">
<path d="M14.0061 7.8127C10.0311 7.8127 6.8248 11.0189 6.8248 14.9939C6.8248 18.9689 10.0311 22.1752 14.0061 22.1752C17.9811 22.1752 21.1873 18.9689 21.1873 14.9939C21.1873 11.0189 17.9811 7.8127 14.0061 7.8127ZM14.0061 19.6627C11.4373 19.6627 9.3373 17.5689 9.3373 14.9939C9.3373 12.4189 11.4311 10.3252 14.0061 10.3252C16.5811 10.3252 18.6748 12.4189 18.6748 14.9939C18.6748 17.5689 16.5748 19.6627 14.0061 19.6627ZM23.1561 7.51895C23.1561 8.4502 22.4061 9.19395 21.4811 9.19395C20.5498 9.19395 19.8061 8.44395 19.8061 7.51895C19.8061 6.59395 20.5561 5.84395 21.4811 5.84395C22.4061 5.84395 23.1561 6.59395 23.1561 7.51895ZM27.9123 9.21895C27.8061 6.9752 27.2936 4.9877 25.6498 3.3502C24.0123 1.7127 22.0248 1.2002 19.7811 1.0877C17.4686 0.956445 10.5373 0.956445 8.2248 1.0877C5.9873 1.19395 3.9998 1.70645 2.35605 3.34395C0.712305 4.98145 0.206055 6.96895 0.0935547 9.2127C-0.0376953 11.5252 -0.0376953 18.4564 0.0935547 20.7689C0.199805 23.0127 0.712305 25.0002 2.35605 26.6377C3.9998 28.2752 5.98105 28.7877 8.2248 28.9002C10.5373 29.0314 17.4686 29.0314 19.7811 28.9002C22.0248 28.7939 24.0123 28.2814 25.6498 26.6377C27.2873 25.0002 27.7998 23.0127 27.9123 20.7689C28.0436 18.4564 28.0436 11.5314 27.9123 9.21895ZM24.9248 23.2502C24.4373 24.4752 23.4936 25.4189 22.2623 25.9127C20.4186 26.6439 16.0436 26.4752 14.0061 26.4752C11.9686 26.4752 7.5873 26.6377 5.7498 25.9127C4.5248 25.4252 3.58105 24.4814 3.0873 23.2502C2.35605 21.4064 2.5248 17.0314 2.5248 14.9939C2.5248 12.9564 2.3623 8.5752 3.0873 6.7377C3.5748 5.5127 4.51855 4.56895 5.7498 4.0752C7.59355 3.34395 11.9686 3.5127 14.0061 3.5127C16.0436 3.5127 20.4248 3.35019 22.2623 4.0752C23.4873 4.5627 24.4311 5.50644 24.9248 6.7377C25.6561 8.58145 25.4873 12.9564 25.4873 14.9939C25.4873 17.0314 25.6561 21.4127 24.9248 23.2502Z" fill="white"/>
</svg>
