<svg width="14" height="14" viewBox="0 0 14 14" fill="none" xmlns="http://www.w3.org/2000/svg">
<path d="M9.05086 0C9.89002 0 10.5702 1.27658 10.5702 2.35804C10.5702 3.43967 9.89002 4.31645 9.05086 4.31645C8.21171 4.31645 7.53149 3.43967 7.53149 2.35804C7.53149 1.27658 8.21171 0 9.05086 0Z" fill="white"/>
<path d="M4.73556 0C5.57471 0 6.25493 1.27658 6.25493 2.35804C6.25493 3.43967 5.57471 4.31645 4.73556 4.31645C3.8964 4.31645 3.21619 3.43967 3.21619 2.35804C3.21619 1.27658 3.8964 0 4.73556 0Z" fill="white"/>
<path d="M0.184092 5.70388C-0.172233 4.81169 -0.016209 3.5283 0.695144 3.24415C1.4065 2.95999 2.40379 3.78261 2.76011 4.6748C3.11644 5.56699 2.82872 6.52065 2.11736 6.8048C1.40601 7.08896 0.540417 6.59591 0.184092 5.70388Z" fill="white"/>
<path d="M13.6013 5.70388C13.245 6.59607 12.3794 7.08896 11.668 6.8048C10.9567 6.52065 10.6688 5.56699 11.0253 4.6748C11.3816 3.78261 12.3789 2.95999 13.0902 3.24415C13.8016 3.5283 13.9576 4.81169 13.6013 5.70388Z" fill="white"/>
<path d="M12.3281 10.6323C12.1651 9.90169 11.7766 9.24272 11.347 8.63193C10.3401 7.20111 8.72785 5.75635 6.89221 5.75635C5.0642 5.75635 3.44444 7.20079 2.43741 8.63193C2.00762 9.24272 1.61918 9.90153 1.45634 10.6323C1.29335 11.363 1.38255 12.1803 1.83521 12.7739C2.28788 13.3675 3.14536 13.6638 3.81584 13.3425C4.2145 13.1514 4.53709 12.7662 4.97694 12.7291C5.38063 12.695 5.73744 12.967 6.0743 13.1944C6.31774 13.3587 6.61114 13.5082 6.89221 13.5102C7.17328 13.5082 7.46668 13.3587 7.71012 13.1944C8.04682 12.967 8.40363 12.6952 8.80748 12.7291C9.24733 12.7661 9.56992 13.1514 9.96858 13.3425C10.6391 13.6638 11.4965 13.3675 11.9492 12.7739C12.4019 12.1803 12.4911 11.363 12.3281 10.6323ZM8.49121 9.75215C8.2841 10.1305 7.95729 10.464 7.68125 10.7233C7.53285 10.8628 7.37699 10.9932 7.21464 11.1139C7.21431 11.114 7.21399 11.1144 7.21367 11.1145C7.02293 11.255 6.76149 11.255 6.57076 11.1145C6.57043 11.1142 6.57011 11.114 6.56978 11.1139C6.40743 10.9934 6.25157 10.8628 6.10317 10.7233C5.82713 10.464 5.50032 10.1305 5.29321 9.75215C5.1221 9.43962 5.03273 9.09627 5.12129 8.73848C5.20611 8.39562 5.4768 8.09444 5.80864 8.05227C6.19237 8.00361 6.63904 8.27365 6.89221 8.58376C7.14522 8.27365 7.59205 8.00361 7.97578 8.05227C8.30762 8.09428 8.57831 8.39562 8.66313 8.73848C8.75169 9.09627 8.66232 9.43962 8.49121 9.75215Z" fill="white"/>
</svg>
